<?xml version="1.0" encoding="UTF-8"?>
<!-- Generator: Adobe Illustrator 15.1.0, SVG Export Plug-In . SVG Version: 6.00 Build 0)  -->
<!DOCTYPE svg PUBLIC "-//W3C//DTD SVG 1.1//EN" "http://www.w3.org/Graphics/SVG/1.1/DTD/svg11.dtd">
<svg version="1.1" id="Layer_1" xmlns="http://www.w3.org/2000/svg" xmlns:xlink="http://www.w3.org/1999/xlink" x="0px" y="0px" width="360px" height="526px" viewBox="0 0 360 526" enable-background="new 0 0 360 526" xml:space="preserve">
<g id="XMLID_1_">
	<g>
		<path fill="#DAEFEE" d="M46.04,454.78c0,4.938-4,8.938-8.94,8.938s-8.94-4-8.94-8.938c0-4.94,4-8.94,8.94-8.94    S46.04,449.84,46.04,454.78z M41.24,458.32v-0.48h-0.36v0.48H41.24z"/>
		<path fill="#DAEFEE" d="M46.04,368.86c0,4.938-4,8.938-8.94,8.938s-8.94-4-8.94-8.938c0-4.94,4-8.94,8.94-8.94    S46.04,363.92,46.04,368.86z M42.32,372.16v-0.48h-0.48v0.48H42.32z M37.16,367.96l-1.56,0.84l-1.68,1.893v0.027l0.48,0.96    l0.96,0.48h1.32l1.92-1.2l0.84-1.44v-0.72l-0.12-0.357l-0.96-0.48L37.16,367.96L37.16,367.96z"/>
		<polygon fill="#DAEFEE" points="34.4,371.68 33.92,370.72 33.92,370.69 35.6,368.8 37.16,367.96 38.36,367.96 39.32,368.44     39.44,368.8 39.44,369.52 38.6,370.96 36.68,372.16 35.36,372.16   "/>
		<path fill="#DAEFEE" d="M41.6,322.24v0.479h0.48v-0.479H41.6z M46.04,319.54c0,4.94-4,8.94-8.94,8.94s-8.94-4-8.94-8.94    s4-8.94,8.94-8.94S46.04,314.6,46.04,319.54z"/>
		<polygon fill="#DAEFEE" points="37.88,277.91 37.88,281.74 33.44,281.92   "/>
		<path fill="#DAEFEE" d="M41.36,283.72v0.48h0.48v-0.48H41.36z M37.88,277.91l-4.44,4.01l4.44-0.18V277.91z M46.04,281.02    c0,4.94-4,8.94-8.94,8.94s-8.94-4-8.94-8.94c0-4.938,4-8.938,8.94-8.938S46.04,276.08,46.04,281.02z"/>
		<path fill="#DAEFEE" d="M42.56,141.76v-0.36h-0.48v0.36H42.56z M46.04,138.46c0,4.94-4,8.94-8.94,8.94s-8.94-4-8.94-8.94    s4-8.94,8.94-8.94S46.04,133.52,46.04,138.46z"/>
		<path fill="#DAEFEE" d="M46.04,111.58c0,4.94-4,8.94-8.94,8.94s-8.94-4-8.94-8.94s4-8.94,8.94-8.94S46.04,106.64,46.04,111.58z     M42.08,114.88v-0.48H41.6v0.48H42.08z"/>
		<path fill="#DAEFEE" d="M39.68,90.28v0.479h0.48V90.28H39.68z M46.04,87.46c0,4.94-4,8.94-8.94,8.94s-8.94-4-8.94-8.94    s4-8.94,8.94-8.94S46.04,82.52,46.04,87.46z"/>
		<polygon fill="#F1CD96" points="307.4,351.28 321.5,359.41 284.48,380.76 284.48,364.48   "/>
		<polygon fill="#F1CD96" points="272.96,289.96 272.96,387.4 258.92,379.24 258.92,298.12   "/>
		<polygon fill="#F1CD96" points="276.8,385.12 276.83,385.18 272.96,387.41 272.96,387.4 272.96,289.96 276.8,287.8   "/>
		<polygon fill="#F1CD96" points="272.96,387.4 272.96,387.41 243.58,404.36 243.561,404.32 243.561,388.24 258.92,379.24   "/>
		<polygon fill="#F1CD96" points="243.561,404.32 243.58,404.36 239.72,406.58 239.72,309.16 243.561,307 243.561,388.24   "/>
		<polygon fill="#F1CD96" points="239.72,309.16 239.72,406.58 239.7,406.59 225.68,398.44 225.68,317.32   "/>
		<polygon fill="#F1CD96" points="239.7,406.59 202.641,427.97 202.641,427.96 202.641,411.76 225.68,398.44   "/>
		<polygon fill="#F1CD96" points="202.641,427.96 202.641,427.97 198.92,430.12 198.92,332.8 202.641,330.52 202.641,411.76   "/>
		<path fill="#F1CD96" d="M184.76,422.08V378.9v-37.94l14.16-8.16v97.32l-0.109,0.06L184.76,422.08z M191.359,390.86l-4.199-0.82    l-0.24,0.84l5.04,1.08l1.56-4.2l0.23-0.7l0.01-0.02l-0.72-0.24l-1.56,4.08L191.359,390.86z"/>
		<polygon fill="#F1CD96" points="184.76,422.08 198.811,430.18 169.4,447.14 169.4,430.96   "/>
		<polygon fill="#F1CD96" points="157.97,453.74 120.8,475.18 120.8,458.92 143.84,445.72   "/>
		<polygon fill="#F1CD96" points="161.72,451.57 165.58,449.35 169.4,447.14 198.811,430.18 198.92,430.24 198.92,430.12     202.641,427.97 239.7,406.59 239.72,406.6 239.72,406.58 243.58,404.36 272.96,387.41 276.83,385.18 280.65,382.97 284.48,380.76     321.5,359.41 321.561,359.439 325.4,357.16 325.4,361.6 96.56,493.72 96.56,489.16 117.01,477.36 117.08,477.4 117.08,477.32     120.8,475.18 157.97,453.74 158,453.76 158,453.72   "/>
		<polygon fill="#F1CD96" points="96.56,489.16 96.56,493.72 89.45,487.34   "/>
		<polygon fill="#F1CD96" points="96.56,493.72 82.52,485.56 89.45,487.34   "/>
		<polygon fill="#F1CD96" points="96.56,489.16 89.45,487.34 82.52,481.12   "/>
		<polygon fill="#F1CD96" points="82.52,481.12 89.45,487.34 82.52,485.56   "/>
		<path fill="#F1CD96" d="M82.52,481.12l13.57-7.82l6.83-3.938l14.09,8l-20.45,11.8L82.52,481.12z M94.04,477.64l4.26,0.91    l0.78,0.17l1.56-4.2l0.22-0.657l0.02-0.063l-0.84-0.239l-1.53,4.119l-0.03,0.08l-4.32-0.96L94.04,477.64z"/>
		<polygon fill="#F1CD96" points="117.08,369.28 117.08,477.32 117.01,477.36 102.92,469.36 102.92,369.28   "/>
		<polygon fill="#F1CD96" points="120.8,458.92 120.8,475.18 117.08,477.32 117.08,369.28 120.8,369.28   "/>
		<polygon fill="#F1CD96" points="158,369.28 158,453.72 157.97,453.74 143.84,445.72 143.84,369.28   "/>
		<polygon fill="#F1CD96" points="161.72,369.28 161.72,451.57 158,453.72 158,369.28   "/>
		<polygon fill="#F1CD96" points="165.56,449.32 165.58,449.35 161.72,451.57 161.72,369.28 165.56,369.28   "/>
		<polygon fill="#F1CD96" points="169.4,430.96 169.4,447.14 165.58,449.35 165.56,449.32 165.56,369.28 169.4,369.28   "/>
		<polygon fill="#F1CD96" points="169.4,349.72 169.4,369.28 165.56,369.28 165.56,352   "/>
		<polygon fill="#F1CD96" points="276.8,283.359 276.8,287.8 272.96,289.96 258.92,298.12 243.561,306.88 243.561,307     239.72,309.16 225.68,317.32 202.641,330.52 198.92,332.8 184.76,340.96 169.4,349.72 165.56,352 165.56,347.561   "/>
		<polygon fill="#F1CD96" points="276.8,278.92 276.8,283.359 165.56,347.561 165.56,343.12   "/>
		<path fill="#F1CD96" d="M195.22,309.8l67.419-38.92l14.16,8.04l-111.24,64.2v-16.2L195.22,309.8z M198.58,315.71l-0.02,0.05    l-4.32-0.96l-0.12,0.84l4.271,0.91l0.771,0.17l1.438-4.21l0.24-0.71l-0.72-0.239L198.58,315.71z"/>
		<path fill="#F1CD96" d="M102.92,369.28V331.72V281.32h14.16v87.96H102.92z M108.86,342.51l-4.26-0.949l-0.24,0.842l5.04,1.078    l1.8-4.801l-0.72-0.357l-1.56,4.197L108.86,342.51z"/>
		<rect x="117.08" y="281.32" fill="#F1CD96" width="3.72" height="87.96"/>
		<rect x="143.84" y="281.32" fill="#F1CD96" width="14.16" height="87.96"/>
		<rect x="158" y="281.32" fill="#F1CD96" width="3.72" height="87.96"/>
		<polygon fill="#F1CD96" points="165.56,347.561 165.56,352 165.56,369.28 161.72,369.28 161.72,281.32 165.56,281.32     165.56,326.92 165.56,343.12   "/>
		<polygon fill="#F1CD96" points="165.56,205.96 165.56,281.32 161.72,281.32 161.72,208.12   "/>
		<polygon fill="#F1CD96" points="280.65,382.97 276.83,385.18 276.8,385.12 276.8,287.8 276.8,283.359 276.8,278.92 276.8,141.76     280.641,139.48 280.641,382.96   "/>
		<polygon fill="#F1CD96" points="276.8,141.76 276.8,278.92 262.641,270.88 262.641,149.8   "/>
		<polygon fill="#F1CD96" points="276.8,115.12 275.48,115.88 275.48,114.4 271.76,112.24 270.46,112.99 270.439,112.96     270.439,111.52 266.6,109.24 266.6,76.72 280.641,68.68 280.641,117.4   "/>
		<polygon fill="#F1CD96" points="284.48,364.48 284.48,380.76 280.65,382.97 280.641,382.96 280.641,139.48 280.641,117.4     280.641,68.68 284.48,66.4   "/>
		<polygon fill="#F1CD96" points="325.4,42.76 325.4,357.16 321.561,359.37 321.561,45.04   "/>
		<polygon fill="#F1CD96" points="321.561,45.04 321.561,359.37 321.5,359.41 307.4,351.28 307.4,53.2   "/>
		<polygon fill="#F1CD96" points="275.48,115.88 276.8,115.12 280.641,117.4 243.58,138.79 243.561,138.76 243.561,134.32   "/>
		<polygon fill="#F1CD96" points="275.48,115.88 243.561,134.32 243.561,132.88 275.48,114.4   "/>
		<polygon fill="#F1CD96" points="275.48,114.4 243.561,132.88 243.561,128.44 270.46,112.99 271.76,112.24   "/>
		<polygon fill="#F1CD96" points="270.46,112.99 243.561,128.44 243.561,127 270.439,111.52 270.439,112.96   "/>
		<polygon fill="#F1CD96" points="270.439,111.52 243.561,127 243.561,122.56 266.6,109.24   "/>
		<polygon fill="#F1CD96" points="243.561,138.76 243.58,138.79 239.76,140.99 239.72,140.92 239.72,92.32 243.561,90.04     243.561,122.56 243.561,127 243.561,128.44 243.561,132.88 243.561,134.32   "/>
		<polygon fill="#F1CD96" points="230.77,135.8 229.49,135.06 225.68,132.88 225.68,100.36 239.72,92.32 239.72,140.92     235.9,138.73 234.59,137.98   "/>
		<polygon fill="#F1CD96" points="234.561,138.04 234.59,137.98 235.9,138.73 235.88,138.76 202.641,157.96 202.641,156.4   "/>
		<polygon fill="#F1CD96" points="239.76,140.99 202.65,162.42 202.641,162.4 202.641,157.96 235.88,138.76 235.9,138.73     239.72,140.92   "/>
		<polygon fill="#F1CD96" points="234.59,137.98 234.561,138.04 202.641,156.4 202.641,152.08 230.77,135.8   "/>
		<polygon fill="#F1CD96" points="230.77,135.8 202.641,152.08 202.641,150.52 229.49,135.06   "/>
		<polygon fill="#F1CD96" points="229.49,135.06 202.641,150.52 202.641,146.2 225.68,132.88   "/>
		<polygon fill="#F1CD96" points="202.641,162.4 202.65,162.42 198.92,164.57 198.92,164.56 198.92,115.84 202.641,113.68     202.641,146.2 202.641,150.52 202.641,152.08 202.641,156.4 202.641,157.96   "/>
		<path fill="#F1CD96" d="M185.6,123.51l13.32-7.67v48.72l-3.91-2.25l-1.3-0.75l-3.729-2.15l-1.351-0.78l-3.87-2.23V124    L185.6,123.51z M190.939,133.11l-4.261-0.95l-0.239,0.84l5.041,1.08l1.56-4.2l0.22-0.66l0.021-0.06l-0.842-0.24l-1.438,4.2    L190.939,133.11z"/>
		<polygon fill="#F1CD96" points="325.4,38.44 325.4,42.76 321.561,45.04 307.4,53.2 284.48,66.4 280.641,68.68 266.6,76.72     243.561,90.04 239.72,92.32 225.68,100.36 202.641,113.68 198.92,115.84 185.6,123.51 183.75,120.22   "/>
		<polygon fill="#F1CD96" points="325.4,34 325.4,38.44 183.75,120.22 181.83,116.81   "/>
		<polygon fill="#F1CD96" points="181.83,116.81 183.75,120.22 158.78,134.64 156.83,131.23   "/>
		<path fill="#F1CD96" d="M181.54,174.6l17.38-10.03l3.73-2.15l37.108-21.43l3.82-2.2l37.062-21.39v22.08l-3.842,2.28l-14.158,8.04    l-97.082,56.16l-3.84,2.16v-22.08L181.54,174.6z M185.43,181.59l-4.27-0.83l-0.24,0.84l5.04,0.96l1.56-4.08l0.24-0.72l-0.84-0.36    l-1.439,4.2L185.43,181.59z"/>
		<polygon fill="#F1CD96" points="181.54,174.6 161.72,186.04 161.72,181.6 179.63,171.25   "/>
		<polygon fill="#F1CD96" points="198.92,164.56 198.92,164.57 181.54,174.6 179.63,171.25 194.96,162.4 195.01,162.31   "/>
		<polygon fill="#F1CD96" points="189.98,159.41 193.71,161.56 193.641,161.68 179,170.15 177.11,166.83 189.92,159.52   "/>
		<polygon fill="#F1CD96" points="193.71,161.56 195.01,162.31 194.96,162.4 179.63,171.25 179,170.15 193.641,161.68   "/>
		<polygon fill="#F1CD96" points="179.63,171.25 161.72,181.6 161.72,180.16 179,170.15   "/>
		<polygon fill="#F1CD96" points="177.11,166.83 161.72,175.6 161.72,174.16 176.45,165.68   "/>
		<polygon fill="#F1CD96" points="189.98,159.41 189.92,159.52 177.11,166.83 176.45,165.68 188.6,158.68 188.63,158.63   "/>
		<polygon fill="#F1CD96" points="188.63,158.63 188.6,158.68 176.45,165.68 174.54,162.31 184.76,156.4   "/>
		<polygon fill="#F1CD96" points="179,170.15 161.72,180.16 161.72,175.6 177.11,166.83   "/>
		<polygon fill="#F1CD96" points="174.54,162.31 176.45,165.68 161.72,174.16 161.72,169.72   "/>
		<polygon fill="#F1CD96" points="161.72,137.2 161.72,137.32 160.65,137.94 158.78,134.64 183.75,120.22 185.6,123.51 184.76,124       "/>
		<polygon fill="#F1CD96" points="161.72,208.12 161.72,281.32 158,281.32 158,139.48 160.65,137.94 161.72,139.81 161.72,169.72     161.72,174.16 161.72,175.6 161.72,180.16 161.72,181.6 161.72,186.04   "/>
		<polygon fill="#F1CD96" points="117.08,163.12 117.08,281.32 102.92,281.32 102.92,171.28   "/>
		<polygon fill="#F1CD96" points="158.78,134.64 160.65,137.94 158,139.48 143.84,147.64 120.8,160.96 120.8,281.32 117.08,281.32     117.08,163.12 102.92,171.28 102.92,171.16 96.56,174.88 96.56,170.56   "/>
		<polygon fill="#F1CD96" points="96.56,170.56 96.56,174.88 89.64,168.73   "/>
		<polygon fill="#F1CD96" points="96.56,174.88 82.52,166.84 89.64,168.73   "/>
		<polygon fill="#F1CD96" points="96.56,170.56 89.64,168.73 82.52,162.4   "/>
		<polygon fill="#F1CD96" points="82.52,162.4 89.64,168.73 82.52,166.84   "/>
		<polygon fill="#F1CD96" points="96.56,166 89.45,164.18 82.52,157.96   "/>
		<polygon fill="#F1CD96" points="82.52,157.96 89.45,164.18 82.52,162.4   "/>
		<polygon fill="#F1CD96" points="96.56,170.56 82.52,162.4 89.45,164.18   "/>
		<polygon fill="#F1CD96" points="96.56,166 96.56,170.56 89.45,164.18   "/>
		<polygon fill="#F1CD96" points="158,139.48 158,281.32 143.84,281.32 143.84,147.64   "/>
		<polygon fill="#F1CD96" points="158.78,134.64 96.56,170.56 96.56,166 156.83,131.23   "/>
		<polygon fill="#F1CD96" points="174.96,104.59 181.83,116.81 156.83,131.23 149.9,119.06   "/>
		<polygon fill="#F1CD96" points="325.4,34 181.83,116.81 174.96,104.59 311.359,25.84   "/>
		<path fill="#F1CD96" d="M92.24,157.36l4.32,0.84l1.56-4.08l0.23-0.69l0.01-0.03l-0.72-0.24l-1.56,4.08l-0.06-0.01l-4.26-0.95    l-0.24,0.84L92.24,157.36z M93.07,151.87l56.83-32.81l6.93,12.17L96.56,166l-14.04-8.04L93.07,151.87z"/>
		<polygon points="200.84,311.8 200.6,312.51 200.12,311.561   "/>
		<polygon points="200.6,312.51 199.16,316.72 200.12,311.561   "/>
		<polygon points="200.12,311.561 199.16,316.72 198.58,315.71   "/>
		<polygon points="198.58,315.71 199.16,316.72 198.561,315.76   "/>
		<polygon points="198.561,315.76 199.16,316.72 198.391,316.55 194.72,315.76   "/>
		<polygon points="194.24,314.8 198.561,315.76 194.72,315.76   "/>
		<polygon points="194.24,314.8 194.72,315.76 194.12,315.64   "/>
		<polygon points="193.75,387.06 193.51,387.73 193.04,386.8 193.76,387.04   "/>
		<polygon points="193.75,387.06 193.52,387.76 193.51,387.73   "/>
		<polygon points="193.51,387.73 193.52,387.76 191.96,391.96   "/>
		<polygon points="193.04,386.8 193.51,387.73 191.96,391.96   "/>
		<polygon points="193.28,129.16 193.26,129.22 193.03,129.86 192.439,128.92   "/>
		<polygon points="193.26,129.22 193.04,129.88 193.03,129.86   "/>
		<polygon points="193.03,129.86 193.04,129.88 191.48,134.08   "/>
		<polygon points="193.04,386.8 191.96,391.96 191.48,390.88   "/>
		<polygon points="192.439,128.92 193.03,129.86 191.48,134.08   "/>
		<polygon points="192.439,128.92 191.48,134.08 191,133.12   "/>
		<polygon points="191.38,390.88 191.96,391.96 187.641,391   "/>
		<polygon points="190.95,133.12 191.48,134.08 187.16,133.12   "/>
		<polygon points="191.48,390.88 191.96,391.96 191.38,390.88   "/>
		<polygon points="191.48,390.88 191.38,390.88 191.359,390.86   "/>
		<polygon points="191,133.12 191.48,134.08 190.95,133.12   "/>
		<polygon points="191,133.12 190.95,133.12 190.939,133.11   "/>
		<polygon points="187.16,390.04 191.359,390.86 191.38,390.88 187.641,391   "/>
		<polygon points="187.76,177.76 187.52,178.48 187.5,178.45   "/>
		<polygon points="187.76,177.76 187.5,178.45 186.92,177.4   "/>
		<polygon points="187.5,178.45 187.52,178.48 185.96,182.56   "/>
		<polygon points="186.92,177.4 187.5,178.45 185.96,182.56   "/>
		<polygon points="187.16,390.04 187.641,391 186.92,390.88   "/>
		<polygon points="186.68,132.16 190.939,133.11 190.95,133.12 187.16,133.12   "/>
		<polygon points="186.68,132.16 187.16,133.12 186.439,133   "/>
		<polygon points="186.92,177.4 185.96,182.56 185.48,181.6   "/>
		<polygon points="185.43,181.6 185.96,182.56 181.641,181.72   "/>
		<polygon points="185.96,182.56 185.43,181.6 185.48,181.6   "/>
		<polygon points="185.48,181.6 185.43,181.6 185.43,181.59   "/>
		<polygon points="181.16,180.76 185.43,181.59 185.43,181.6 181.641,181.72   "/>
		<polygon points="181.16,180.76 181.641,181.72 180.92,181.6   "/>
		<polygon points="111.2,338.68 110.96,339.28 110.48,338.32   "/>
		<polygon points="110.48,338.32 110.96,339.28 109.4,343.48   "/>
		<polygon points="110.48,338.32 109.4,343.48 108.92,342.52   "/>
		<polygon points="108.87,342.52 109.4,343.48 105.08,342.52   "/>
		<polygon points="108.92,342.52 109.4,343.48 108.87,342.52   "/>
		<polygon points="108.92,342.52 108.87,342.52 108.86,342.51   "/>
		<polygon points="104.6,341.561 108.86,342.51 108.87,342.52 105.08,342.52   "/>
		<polygon points="104.6,341.561 105.08,342.52 104.36,342.4   "/>
		<polygon points="100.88,473.8 100.86,473.86 100.63,474.5 100.04,473.56   "/>
		<polygon points="100.86,473.86 100.64,474.52 100.63,474.5   "/>
		<polygon points="100.63,474.5 100.64,474.52 99.08,478.72   "/>
		<polygon points="100.04,473.56 100.63,474.5 99.08,478.72   "/>
		<polygon points="100.04,473.56 99.08,478.72 98.51,477.68   "/>
		<polygon points="98.51,477.68 99.08,478.72 98.48,477.76   "/>
		<polygon points="98.3,478.55 94.76,477.76 98.48,477.76 99.08,478.72   "/>
		<polygon points="98.36,153.4 98.35,153.43 98.1,154.09 97.64,153.16   "/>
		<polygon points="98.35,153.43 98.12,154.12 98.1,154.09   "/>
		<polygon points="98.1,154.09 98.12,154.12 96.56,158.2   "/>
		<polygon points="97.64,153.16 98.1,154.09 96.56,158.2   "/>
		<polygon points="97.64,153.16 96.56,158.2 96.08,157.24   "/>
		<polygon points="96.03,157.24 96.56,158.2 92.59,157.35   "/>
		<polygon points="96.56,158.2 92.24,157.36 92.59,157.35   "/>
		<polygon points="96.08,157.24 96.56,158.2 96.03,157.24   "/>
		<polygon points="96.08,157.24 96.03,157.24 96.02,157.23   "/>
		<polygon points="96.02,157.23 96.03,157.24 92.59,157.35 92.2,157.27 91.76,156.28   "/>
		<polygon points="94.16,476.8 98.48,477.76 94.76,477.76   "/>
		<polygon points="94.16,476.8 94.76,477.76 94.04,477.64   "/>
		<polygon points="92.59,157.35 92.24,157.36 92.2,157.27   "/>
		<polygon points="92.2,157.27 92.24,157.36 91.52,157.12   "/>
		<polygon points="91.76,156.28 92.2,157.27 91.52,157.12   "/>
	</g>
	<g>
		
			<polyline fill="none" stroke="#000000" stroke-width="1.08" stroke-linecap="round" stroke-linejoin="round" stroke-miterlimit="10" points="    82.52,485.56 96.56,493.72 325.4,361.6   "/>
		
			<line fill="none" stroke="#000000" stroke-width="1.08" stroke-linecap="round" stroke-linejoin="round" stroke-miterlimit="10" x1="307.4" y1="351.28" x2="284.48" y2="364.48"/>
		
			<line fill="none" stroke="#000000" stroke-width="1.08" stroke-linecap="round" stroke-linejoin="round" stroke-miterlimit="10" x1="258.92" y1="379.24" x2="243.561" y2="388.24"/>
		
			<line fill="none" stroke="#000000" stroke-width="1.08" stroke-linecap="round" stroke-linejoin="round" stroke-miterlimit="10" x1="225.68" y1="398.44" x2="202.641" y2="411.76"/>
		
			<line fill="none" stroke="#000000" stroke-width="1.08" stroke-linecap="round" stroke-linejoin="round" stroke-miterlimit="10" x1="184.76" y1="422.08" x2="169.4" y2="430.96"/>
		
			<line fill="none" stroke="#000000" stroke-width="1.08" stroke-linecap="round" stroke-linejoin="round" stroke-miterlimit="10" x1="143.84" y1="445.72" x2="120.8" y2="458.92"/>
		
			<polyline fill="none" stroke="#000000" stroke-width="1.08" stroke-linecap="round" stroke-linejoin="round" stroke-miterlimit="10" points="    102.92,469.36 96.09,473.3 82.52,481.12   "/>
		
			<polyline fill="none" stroke="#000000" stroke-width="0.6" stroke-linecap="round" stroke-linejoin="round" stroke-miterlimit="10" points="    82.52,481.12 96.56,489.16 117.01,477.36 117.08,477.32 120.8,475.18 157.97,453.74 158,453.72 161.72,451.57 165.58,449.35     169.4,447.14 198.811,430.18 198.92,430.12 202.641,427.97 239.7,406.59 239.72,406.58 243.58,404.36 272.96,387.41     276.83,385.18 280.65,382.97 284.48,380.76 321.5,359.41 321.561,359.37 325.4,357.16   "/>
		
			<line fill="none" stroke="#000000" stroke-width="1.08" stroke-linecap="round" stroke-linejoin="round" stroke-miterlimit="10" x1="82.52" y1="485.56" x2="82.52" y2="481.12"/>
		
			<line fill="none" stroke="#000000" stroke-width="0.6" stroke-linecap="round" stroke-linejoin="round" stroke-miterlimit="10" x1="96.56" y1="493.72" x2="96.56" y2="489.16"/>
		
			<line fill="none" stroke="#000000" stroke-width="0.84" stroke-linecap="round" stroke-linejoin="round" stroke-miterlimit="10" x1="102.92" y1="171.28" x2="117.08" y2="163.12"/>
		
			<line fill="none" stroke="#000000" stroke-width="0.84" stroke-linecap="round" stroke-linejoin="round" stroke-miterlimit="10" x1="143.84" y1="147.64" x2="158" y2="139.48"/>
		
			<polyline fill="none" stroke="#000000" stroke-width="0.84" stroke-linecap="round" stroke-linejoin="round" stroke-miterlimit="10" points="    184.76,124 185.6,123.51 198.92,115.84   "/>
		
			<line fill="none" stroke="#000000" stroke-width="0.84" stroke-linecap="round" stroke-linejoin="round" stroke-miterlimit="10" x1="225.68" y1="100.36" x2="239.72" y2="92.32"/>
		
			<line fill="none" stroke="#000000" stroke-width="0.84" stroke-linecap="round" stroke-linejoin="round" stroke-miterlimit="10" x1="266.6" y1="76.72" x2="280.641" y2="68.68"/>
		
			<line fill="none" stroke="#000000" stroke-width="0.84" stroke-linecap="round" stroke-linejoin="round" stroke-miterlimit="10" x1="307.4" y1="53.2" x2="321.561" y2="45.04"/>
		
			<line fill="none" stroke="#000000" stroke-width="1.08" stroke-linecap="round" stroke-linejoin="round" stroke-miterlimit="10" x1="82.52" y1="166.84" x2="96.56" y2="174.88"/>
		
			<polyline fill="none" stroke="#000000" stroke-width="1.08" stroke-linecap="round" stroke-linejoin="round" stroke-miterlimit="10" points="    102.92,171.16 102.92,171.28 102.92,281.32 102.92,331.72 102.92,369.28 102.92,469.36   "/>
		
			<polyline fill="none" stroke="#000000" stroke-width="0.6" stroke-linecap="round" stroke-linejoin="round" stroke-miterlimit="10" points="    102.92,469.36 117.01,477.36 117.08,477.4 117.08,477.32 117.08,369.28 117.08,281.32 117.08,163.12   "/>
		
			<polyline fill="none" stroke="#000000" stroke-width="1.08" stroke-linecap="round" stroke-linejoin="round" stroke-miterlimit="10" points="    120.8,475.24 120.8,475.18 120.8,458.92 120.8,369.28 120.8,281.32 120.8,160.96   "/>
		
			<polyline fill="none" stroke="#000000" stroke-width="1.08" stroke-linecap="round" stroke-linejoin="round" stroke-miterlimit="10" points="    143.84,147.64 143.84,281.32 143.84,369.28 143.84,445.72   "/>
		
			<polyline fill="none" stroke="#000000" stroke-width="0.6" stroke-linecap="round" stroke-linejoin="round" stroke-miterlimit="10" points="    143.84,445.72 157.97,453.74 158,453.76 158,453.72 158,369.28 158,281.32 158,139.48   "/>
		
			<line fill="none" stroke="#000000" stroke-width="0.6" stroke-linecap="round" stroke-linejoin="round" stroke-miterlimit="10" x1="161.72" y1="208.12" x2="161.72" y2="186.04"/>
		
			<polyline fill="none" stroke="#000000" stroke-width="1.08" stroke-linecap="round" stroke-linejoin="round" stroke-miterlimit="10" points="    184.76,340.96 184.76,378.9 184.76,422.08   "/>
		
			<polyline fill="none" stroke="#000000" stroke-width="0.6" stroke-linecap="round" stroke-linejoin="round" stroke-miterlimit="10" points="    184.76,422.08 198.811,430.18 198.92,430.24 198.92,430.12 198.92,332.8   "/>
		
			<line fill="none" stroke="#000000" stroke-width="1.08" stroke-linecap="round" stroke-linejoin="round" stroke-miterlimit="10" x1="202.641" y1="411.76" x2="202.641" y2="330.52"/>
		
			<line fill="none" stroke="#000000" stroke-width="1.08" stroke-linecap="round" stroke-linejoin="round" stroke-miterlimit="10" x1="225.68" y1="317.32" x2="225.68" y2="398.44"/>
		
			<polyline fill="none" stroke="#000000" stroke-width="0.6" stroke-linecap="round" stroke-linejoin="round" stroke-miterlimit="10" points="    225.68,398.44 239.7,406.59 239.72,406.6 239.72,406.58 239.72,309.16   "/>
		
			<polyline fill="none" stroke="#000000" stroke-width="1.08" stroke-linecap="round" stroke-linejoin="round" stroke-miterlimit="10" points="    243.561,388.24 243.561,307 243.561,306.88   "/>
		
			<line fill="none" stroke="#000000" stroke-width="1.08" stroke-linecap="round" stroke-linejoin="round" stroke-miterlimit="10" x1="266.6" y1="76.72" x2="266.6" y2="109.24"/>
		
			<line fill="none" stroke="#000000" stroke-width="0.6" stroke-linecap="round" stroke-linejoin="round" stroke-miterlimit="10" x1="280.641" y1="117.4" x2="280.641" y2="68.68"/>
		
			<line fill="none" stroke="#000000" stroke-width="1.08" stroke-linecap="round" stroke-linejoin="round" stroke-miterlimit="10" x1="284.48" y1="364.48" x2="284.48" y2="66.4"/>
		
			<line fill="none" stroke="#000000" stroke-width="1.08" stroke-linecap="round" stroke-linejoin="round" stroke-miterlimit="10" x1="307.4" y1="53.2" x2="307.4" y2="351.28"/>
		
			<polyline fill="none" stroke="#000000" stroke-width="0.6" stroke-linecap="round" stroke-linejoin="round" stroke-miterlimit="10" points="    307.4,351.28 321.5,359.41 321.561,359.439 321.561,359.37 321.561,45.04   "/>
		
			<polyline fill="none" stroke="#000000" stroke-width="1.08" stroke-linecap="round" stroke-linejoin="round" stroke-miterlimit="10" points="    325.4,361.6 325.4,357.16 325.4,42.76 325.4,38.44 325.4,34   "/>
		
			<line fill="none" stroke="#000000" stroke-width="0.6" stroke-linecap="round" stroke-linejoin="round" stroke-miterlimit="10" x1="321.561" y1="359.439" x2="325.4" y2="357.16"/>
		
			<polyline fill="none" stroke="#000000" stroke-width="0.6" stroke-linecap="round" stroke-linejoin="round" stroke-miterlimit="10" points="    82.52,162.4 96.56,170.56 158.78,134.64 183.75,120.22 325.4,38.44   "/>
		
			<polyline fill="none" stroke="#000000" stroke-width="1.08" stroke-linecap="round" stroke-linejoin="round" stroke-miterlimit="10" points="    325.4,34 311.359,25.84 174.96,104.59 149.9,119.06 93.07,151.87 82.52,157.96   "/>
		
			<polyline fill="none" stroke="#000000" stroke-width="0.6" stroke-linecap="round" stroke-linejoin="round" stroke-miterlimit="10" points="    82.52,157.96 96.56,166 156.83,131.23 181.83,116.81 325.4,34   "/>
		
			<polyline fill="none" stroke="#000000" stroke-width="1.08" stroke-linecap="round" stroke-linejoin="round" stroke-miterlimit="10" points="    82.52,166.84 82.52,162.4 82.52,157.96   "/>
		
			<polyline fill="none" stroke="#000000" stroke-width="0.6" stroke-linecap="round" stroke-linejoin="round" stroke-miterlimit="10" points="    96.56,174.88 96.56,170.56 96.56,166   "/>
		
			<polyline fill="none" stroke="#000000" stroke-width="1.08" stroke-linecap="round" stroke-linejoin="round" stroke-miterlimit="10" points="    262.641,270.88 195.22,309.8 165.56,326.92   "/>
		
			<polyline fill="none" stroke="#000000" stroke-width="0.6" stroke-linecap="round" stroke-linejoin="round" stroke-miterlimit="10" points="    165.56,343.12 276.8,278.92 262.641,270.88   "/>
		
			<line fill="none" stroke="#000000" stroke-width="0.6" stroke-linecap="round" stroke-linejoin="round" stroke-miterlimit="10" x1="165.56" y1="352" x2="169.4" y2="349.72"/>
		
			<line fill="none" stroke="#000000" stroke-width="0.84" stroke-linecap="round" stroke-linejoin="round" stroke-miterlimit="10" x1="184.76" y1="340.96" x2="198.92" y2="332.8"/>
		
			<line fill="none" stroke="#000000" stroke-width="0.84" stroke-linecap="round" stroke-linejoin="round" stroke-miterlimit="10" x1="225.68" y1="317.32" x2="239.72" y2="309.16"/>
		
			<line fill="none" stroke="#000000" stroke-width="0.84" stroke-linecap="round" stroke-linejoin="round" stroke-miterlimit="10" x1="258.92" y1="298.12" x2="272.96" y2="289.96"/>
		
			<line fill="none" stroke="#000000" stroke-width="0.6" stroke-linecap="round" stroke-linejoin="round" stroke-miterlimit="10" x1="165.56" y1="347.561" x2="276.8" y2="283.359"/>
		
			<line fill="none" stroke="#000000" stroke-width="1.08" stroke-linecap="round" stroke-linejoin="round" stroke-miterlimit="10" x1="262.641" y1="149.8" x2="262.641" y2="270.88"/>
		
			<polyline fill="none" stroke="#000000" stroke-width="0.6" stroke-linecap="round" stroke-linejoin="round" stroke-miterlimit="10" points="    276.8,385.12 276.8,287.8 276.8,283.359 276.8,278.92 276.8,141.76   "/>
		
			<polyline fill="none" stroke="#000000" stroke-width="0.6" stroke-linecap="round" stroke-linejoin="round" stroke-miterlimit="10" points="    280.641,382.96 280.641,139.48 276.8,141.76   "/>
		
			<polyline fill="none" stroke="#000000" stroke-width="0.6" stroke-linecap="round" stroke-linejoin="round" stroke-miterlimit="10" points="    161.72,451.6 161.72,451.57 161.72,369.28 161.72,281.32 161.72,208.12   "/>
		
			<polyline fill="none" stroke="#000000" stroke-width="0.6" stroke-linecap="round" stroke-linejoin="round" stroke-miterlimit="10" points="    165.56,449.32 165.56,369.28 165.56,352 165.56,347.561 165.56,343.12   "/>
		
			<line fill="none" stroke="#000000" stroke-width="1.08" stroke-linecap="round" stroke-linejoin="round" stroke-miterlimit="10" x1="184.76" y1="124" x2="184.76" y2="156.4"/>
		
			<polyline fill="none" stroke="#000000" stroke-width="0.6" stroke-linecap="round" stroke-linejoin="round" stroke-miterlimit="10" points="    184.76,156.4 188.63,158.63 189.98,159.41 193.71,161.56 195.01,162.31 198.92,164.56 198.92,115.84   "/>
		
			<polyline fill="none" stroke="#000000" stroke-width="0.84" stroke-linecap="round" stroke-linejoin="round" stroke-miterlimit="10" points="    202.641,162.4 202.641,157.96 202.641,156.4 202.641,152.08 202.641,150.52 202.641,146.2   "/>
		
			<line fill="none" stroke="#000000" stroke-width="1.08" stroke-linecap="round" stroke-linejoin="round" stroke-miterlimit="10" x1="266.6" y1="109.24" x2="243.561" y2="122.56"/>
		
			<line fill="none" stroke="#000000" stroke-width="1.08" stroke-linecap="round" stroke-linejoin="round" stroke-miterlimit="10" x1="225.68" y1="132.88" x2="202.641" y2="146.2"/>
		
			<polyline fill="none" stroke="#000000" stroke-width="1.08" stroke-linecap="round" stroke-linejoin="round" stroke-miterlimit="10" points="    184.76,156.4 174.54,162.31 161.72,169.72   "/>
		
			<line fill="none" stroke="#000000" stroke-width="0.6" stroke-linecap="round" stroke-linejoin="round" stroke-miterlimit="10" x1="270.439" y1="111.52" x2="266.6" y2="109.24"/>
		
			<polyline fill="none" stroke="#000000" stroke-width="0.6" stroke-linecap="round" stroke-linejoin="round" stroke-miterlimit="10" points="    161.72,174.16 176.45,165.68 188.6,158.68   "/>
		
			<polyline fill="none" stroke="#000000" stroke-width="0.6" stroke-linecap="round" stroke-linejoin="round" stroke-miterlimit="10" points="    202.641,150.52 229.49,135.06 229.52,135.04   "/>
		
			<polyline fill="none" stroke="#000000" stroke-width="0.6" stroke-linecap="round" stroke-linejoin="round" stroke-miterlimit="10" points="    243.561,127 270.439,111.52 270.439,112.96   "/>
		
			<polyline fill="none" stroke="#000000" stroke-width="0.6" stroke-linecap="round" stroke-linejoin="round" stroke-miterlimit="10" points="    271.76,112.24 270.46,112.99 243.561,128.44   "/>
		
			<polyline fill="none" stroke="#000000" stroke-width="0.6" stroke-linecap="round" stroke-linejoin="round" stroke-miterlimit="10" points="    230.84,135.76 230.77,135.8 202.641,152.08   "/>
		
			<polyline fill="none" stroke="#000000" stroke-width="0.6" stroke-linecap="round" stroke-linejoin="round" stroke-miterlimit="10" points="    189.92,159.52 177.11,166.83 161.72,175.6   "/>
		
			<line fill="none" stroke="#000000" stroke-width="0.6" stroke-linecap="round" stroke-linejoin="round" stroke-miterlimit="10" x1="275.48" y1="114.4" x2="271.76" y2="112.24"/>
		
			<polyline fill="none" stroke="#000000" stroke-width="0.6" stroke-linecap="round" stroke-linejoin="round" stroke-miterlimit="10" points="    161.72,180.16 179,170.15 193.641,161.68   "/>
		
			<line fill="none" stroke="#000000" stroke-width="0.6" stroke-linecap="round" stroke-linejoin="round" stroke-miterlimit="10" x1="202.641" y1="156.4" x2="234.561" y2="138.04"/>
		
			<polyline fill="none" stroke="#000000" stroke-width="0.6" stroke-linecap="round" stroke-linejoin="round" stroke-miterlimit="10" points="    243.561,132.88 275.48,114.4 275.48,115.88 275.48,115.96   "/>
		
			<line fill="none" stroke="#000000" stroke-width="1.08" stroke-linecap="round" stroke-linejoin="round" stroke-miterlimit="10" x1="165.56" y1="205.96" x2="262.641" y2="149.8"/>
		
			<polyline fill="none" stroke="#000000" stroke-width="0.6" stroke-linecap="round" stroke-linejoin="round" stroke-miterlimit="10" points="    276.8,115.12 275.48,115.88 243.561,134.32   "/>
		
			<line fill="none" stroke="#000000" stroke-width="0.6" stroke-linecap="round" stroke-linejoin="round" stroke-miterlimit="10" x1="235.88" y1="138.76" x2="202.641" y2="157.96"/>
		
			<polyline fill="none" stroke="#000000" stroke-width="0.6" stroke-linecap="round" stroke-linejoin="round" stroke-miterlimit="10" points="    194.96,162.4 179.63,171.25 161.72,181.6   "/>
		
			<polyline fill="none" stroke="#000000" stroke-width="0.6" stroke-linecap="round" stroke-linejoin="round" stroke-miterlimit="10" points="    161.72,186.04 181.54,174.6 198.92,164.57 202.65,162.42 239.76,140.99 243.58,138.79 280.641,117.4 276.8,115.12   "/>
		
			<line fill="none" stroke="#000000" stroke-width="0.6" stroke-linecap="round" stroke-linejoin="round" stroke-miterlimit="10" x1="280.641" y1="139.48" x2="280.641" y2="117.4"/>
		
			<line fill="none" stroke="#000000" stroke-width="1.08" stroke-linecap="round" stroke-linejoin="round" stroke-miterlimit="10" x1="225.68" y1="100.36" x2="225.68" y2="132.88"/>
		
			<polyline fill="none" stroke="#000000" stroke-width="0.6" stroke-linecap="round" stroke-linejoin="round" stroke-miterlimit="10" points="    225.68,132.88 229.49,135.06 230.77,135.8 234.59,137.98 235.9,138.73 239.72,140.92 239.72,92.32   "/>
		
			<polyline fill="none" stroke="#000000" stroke-width="0.84" stroke-linecap="round" stroke-linejoin="round" stroke-miterlimit="10" points="    243.561,138.76 243.561,134.32 243.561,132.88 243.561,128.44 243.561,127 243.561,122.56   "/>
		
			<line fill="none" stroke="#000000" stroke-width="1.08" stroke-linecap="round" stroke-linejoin="round" stroke-miterlimit="10" x1="258.92" y1="298.12" x2="258.92" y2="379.24"/>
		
			<polyline fill="none" stroke="#000000" stroke-width="0.6" stroke-linecap="round" stroke-linejoin="round" stroke-miterlimit="10" points="    258.92,379.24 272.96,387.4 272.96,289.96   "/>
		
			<polyline fill="none" stroke="#000000" stroke-width="1.08" stroke-linecap="round" stroke-linejoin="round" stroke-miterlimit="10" points="    169.4,430.96 169.4,369.28 169.4,349.72   "/>
		
			<line fill="none" stroke="#000000" stroke-width="1.08" stroke-linecap="round" stroke-linejoin="round" stroke-miterlimit="10" x1="96.56" y1="174.88" x2="102.92" y2="171.16"/>
		
			<line fill="none" stroke="#000000" stroke-width="1.08" stroke-linecap="round" stroke-linejoin="round" stroke-miterlimit="10" x1="120.8" y1="160.96" x2="143.84" y2="147.64"/>
		
			<polyline fill="none" stroke="#000000" stroke-width="0.84" stroke-linecap="round" stroke-linejoin="round" stroke-miterlimit="10" points="    284.48,364.48 284.48,380.76 284.48,380.8   "/>
		
			<polyline fill="none" stroke="#000000" stroke-width="0.84" stroke-linecap="round" stroke-linejoin="round" stroke-miterlimit="10" points="    169.4,430.96 169.4,447.14 169.4,447.16   "/>
		
			<line fill="none" stroke="#000000" stroke-width="0.84" stroke-linecap="round" stroke-linejoin="round" stroke-miterlimit="10" x1="202.641" y1="411.76" x2="202.641" y2="427.96"/>
		
			<line fill="none" stroke="#000000" stroke-width="0.84" stroke-linecap="round" stroke-linejoin="round" stroke-miterlimit="10" x1="243.561" y1="388.24" x2="243.561" y2="404.32"/>
		
			<line fill="none" stroke="#000000" stroke-width="1.08" stroke-linecap="round" stroke-linejoin="round" stroke-miterlimit="10" x1="243.561" y1="306.88" x2="258.92" y2="298.12"/>
		
			<line fill="none" stroke="#000000" stroke-width="1.08" stroke-linecap="round" stroke-linejoin="round" stroke-miterlimit="10" x1="225.68" y1="317.32" x2="202.641" y2="330.52"/>
		
			<line fill="none" stroke="#000000" stroke-width="1.08" stroke-linecap="round" stroke-linejoin="round" stroke-miterlimit="10" x1="184.76" y1="340.96" x2="169.4" y2="349.72"/>
		
			<line fill="none" stroke="#000000" stroke-width="1.08" stroke-linecap="round" stroke-linejoin="round" stroke-miterlimit="10" x1="243.561" y1="90.04" x2="266.6" y2="76.72"/>
		
			<line fill="none" stroke="#000000" stroke-width="1.08" stroke-linecap="round" stroke-linejoin="round" stroke-miterlimit="10" x1="202.641" y1="113.68" x2="225.68" y2="100.36"/>
		
			<line fill="none" stroke="#000000" stroke-width="1.08" stroke-linecap="round" stroke-linejoin="round" stroke-miterlimit="10" x1="161.72" y1="137.2" x2="184.76" y2="124"/>
		
			<polyline fill="none" stroke="#000000" stroke-width="1.08" stroke-linecap="round" stroke-linejoin="round" stroke-miterlimit="10" points="    161.72,169.72 161.72,139.81 161.72,137.32   "/>
		
			<line fill="none" stroke="#000000" stroke-width="1.08" stroke-linecap="round" stroke-linejoin="round" stroke-miterlimit="10" x1="202.641" y1="146.2" x2="202.641" y2="113.68"/>
		
			<line fill="none" stroke="#000000" stroke-width="1.08" stroke-linecap="round" stroke-linejoin="round" stroke-miterlimit="10" x1="243.561" y1="122.56" x2="243.561" y2="90.04"/>
		
			<line fill="none" stroke="#000000" stroke-width="1.08" stroke-linecap="round" stroke-linejoin="round" stroke-miterlimit="10" x1="284.48" y1="66.4" x2="307.4" y2="53.2"/>
		
			<polyline fill="none" stroke="#000000" stroke-width="1.08" stroke-linecap="round" stroke-linejoin="round" stroke-miterlimit="10" points="    165.56,326.92 165.56,281.32 165.56,205.96   "/>
		
			<line fill="none" stroke="#000000" stroke-width="0.84" stroke-linecap="round" stroke-linejoin="round" stroke-miterlimit="10" x1="165.56" y1="343.12" x2="165.56" y2="326.92"/>
		
			<polyline fill="none" stroke="#000000" stroke-width="0.84" stroke-linecap="round" stroke-linejoin="round" stroke-miterlimit="10" points="    161.72,186.04 161.72,181.6 161.72,180.16 161.72,175.6 161.72,174.16 161.72,169.72   "/>
		
			<line fill="none" stroke="#000000" stroke-width="0.84" stroke-linecap="round" stroke-linejoin="round" stroke-miterlimit="10" x1="262.641" y1="149.8" x2="276.8" y2="141.76"/>
		
			<polyline fill="none" stroke="#000000" stroke-width="0.6" stroke-linecap="round" stroke-linejoin="round" stroke-miterlimit="10" points="    158,139.48 160.65,137.94 161.72,137.32   "/>
		
			<line fill="none" stroke="#000000" stroke-width="0.6" stroke-linecap="round" stroke-linejoin="round" stroke-miterlimit="10" x1="321.561" y1="45.04" x2="325.4" y2="42.76"/>
		
			<line fill="none" stroke="#000000" stroke-width="0.6" stroke-linecap="round" stroke-linejoin="round" stroke-miterlimit="10" x1="280.641" y1="68.68" x2="284.48" y2="66.4"/>
		
			<line fill="none" stroke="#000000" stroke-width="0.6" stroke-linecap="round" stroke-linejoin="round" stroke-miterlimit="10" x1="239.72" y1="92.32" x2="243.561" y2="90.04"/>
		
			<line fill="none" stroke="#000000" stroke-width="0.6" stroke-linecap="round" stroke-linejoin="round" stroke-miterlimit="10" x1="198.92" y1="115.84" x2="202.641" y2="113.68"/>
		
			<line fill="none" stroke="#000000" stroke-width="0.6" stroke-linecap="round" stroke-linejoin="round" stroke-miterlimit="10" x1="161.72" y1="208.12" x2="165.56" y2="205.96"/>
		
			<line fill="none" stroke="#000000" stroke-width="0.6" stroke-linecap="round" stroke-linejoin="round" stroke-miterlimit="10" x1="272.96" y1="289.96" x2="276.8" y2="287.8"/>
		
			<line fill="none" stroke="#000000" stroke-width="0.6" stroke-linecap="round" stroke-linejoin="round" stroke-miterlimit="10" x1="239.72" y1="309.16" x2="243.561" y2="307"/>
		
			<line fill="none" stroke="#000000" stroke-width="0.6" stroke-linecap="round" stroke-linejoin="round" stroke-miterlimit="10" x1="198.92" y1="332.8" x2="202.641" y2="330.52"/>
		
			<polyline fill="none" stroke="#000000" stroke-width="0.24" stroke-linecap="round" stroke-linejoin="round" stroke-miterlimit="10" points="    82.52,166.84 89.64,168.73 96.56,170.56 89.45,164.18 82.52,157.96   "/>
		
			<polyline fill="none" stroke="#000000" stroke-width="0.24" stroke-linecap="round" stroke-linejoin="round" stroke-miterlimit="10" points="    96.56,166 89.45,164.18 82.52,162.4 89.64,168.73 96.56,174.88   "/>
		
			<polyline fill="none" stroke="#000000" stroke-width="0.24" stroke-linecap="round" stroke-linejoin="round" stroke-miterlimit="10" points="    96.56,493.72 89.45,487.34 82.52,481.12   "/>
		
			<polyline fill="none" stroke="#000000" stroke-width="0.24" stroke-linecap="round" stroke-linejoin="round" stroke-miterlimit="10" points="    82.52,485.56 89.45,487.34 96.56,489.16   "/>
		<line fill="none" x1="98.12" y1="154.12" x2="98.35" y2="153.43"/>
		<polyline fill="none" points="97.64,153.16 98.1,154.09 98.12,154.12 96.56,158.2   "/>
		<line fill="none" x1="96.56" y1="158.2" x2="97.64" y2="153.16"/>
		<line fill="none" x1="92.24" y1="157.36" x2="91.52" y2="157.12"/>
		<polyline fill="none" points="91.76,156.28 92.2,157.27 92.24,157.36   "/>
		<polygon fill="none" points="96.08,157.24 96.56,158.2 92.24,157.36 92.59,157.35 96.03,157.24   "/>
		
			<polyline fill="none" stroke="#000000" stroke-width="0.84" stroke-linecap="round" stroke-linejoin="round" stroke-miterlimit="10" points="    91.52,157.12 92.2,157.27 92.59,157.35 96.56,158.2 98.1,154.09 98.35,153.43 98.36,153.4 97.64,153.16 96.08,157.24     96.02,157.23 91.76,156.28 91.52,157.12   "/>
		
			<polyline fill="none" stroke="#000000" stroke-width="0.84" stroke-linecap="round" stroke-linejoin="round" stroke-miterlimit="10" points="    96.56,158.2 96.03,157.24 96.02,157.23 93.32,152.32 93.07,151.87 86,138.88 46.04,138.88   "/>
		
			<polyline fill="none" stroke="#000000" stroke-width="0.84" stroke-linecap="round" stroke-linejoin="round" stroke-miterlimit="10" points="    32.99,142.18 33.71,143.26 34.79,143.439 35.51,143.439 37.13,143.26 39.29,142.18 41.09,140.38 41.45,139.3 41.45,138.58     40.73,137.86 38.57,137.319 37.13,137.319 33.351,137.86   "/>
		
			<polyline fill="none" stroke="#000000" stroke-width="0.84" stroke-linecap="round" stroke-linejoin="round" stroke-miterlimit="10" points="    37.13,137.319 38.93,136.24 40.37,135.16 40.73,134.439 40.73,134.08 40.37,133.721 38.93,133.36 38.21,133.36 35.51,133.721     32.99,134.439   "/>
		
			<circle fill="none" stroke="#000000" stroke-width="0.84" stroke-linecap="round" stroke-linejoin="round" stroke-miterlimit="10" cx="37.1" cy="138.46" r="8.94"/>
		<line fill="none" x1="110.96" y1="339.28" x2="111.2" y2="338.68"/>
		<polyline fill="none" points="110.48,338.32 110.96,339.28 109.4,343.48   "/>
		<line fill="none" x1="109.4" y1="343.48" x2="110.48" y2="338.32"/>
		<line fill="none" x1="105.08" y1="342.52" x2="104.36" y2="342.4"/>
		<line fill="none" x1="104.6" y1="341.561" x2="105.08" y2="342.52"/>
		<polygon fill="none" points="108.92,342.52 109.4,343.48 105.08,342.52 108.87,342.52   "/>
		
			<polyline fill="none" stroke="#000000" stroke-width="0.84" stroke-linecap="round" stroke-linejoin="round" stroke-miterlimit="10" points="    104.36,342.4 109.4,343.48 111.2,338.68 110.48,338.32 108.92,342.52 108.86,342.51 104.6,341.561 104.36,342.4   "/>
		
			<polyline fill="none" stroke="#000000" stroke-width="0.84" stroke-linecap="round" stroke-linejoin="round" stroke-miterlimit="10" points="    109.4,343.48 108.87,342.52 108.86,342.51 106.16,337.6 102.92,331.72 96.44,319.96 46.04,319.96   "/>
		
			<polyline fill="none" stroke="#000000" stroke-width="0.84" stroke-linecap="round" stroke-linejoin="round" stroke-miterlimit="10" points="    33.897,323.502 34.257,324.223 35.337,324.582 36.057,324.582 37.317,324.223 39.117,323.142 40.917,321.521 41.277,320.441     41.277,319.723 40.917,319.002 40.197,318.642 38.757,318.281 37.677,318.281 34.617,318.566 33.897,318.642   "/>
		
			<polyline fill="none" stroke="#000000" stroke-width="0.84" stroke-linecap="round" stroke-linejoin="round" stroke-miterlimit="10" points="    34.617,319.002 34.617,318.566 34.617,315.178 34.617,314.502   "/>
		
			<polyline fill="none" stroke="#000000" stroke-width="0.84" stroke-linecap="round" stroke-linejoin="round" stroke-miterlimit="10" points="    33.897,315.223 34.617,315.178 40.197,314.862   "/>
		
			<path fill="none" stroke="#000000" stroke-width="0.84" stroke-linecap="round" stroke-linejoin="round" stroke-miterlimit="10" d="    M37.1,310.6c-4.94,0-8.94,4-8.94,8.94s4,8.94,8.94,8.94s8.94-4,8.94-8.94S42.04,310.6,37.1,310.6z"/>
		<line fill="none" x1="100.64" y1="474.52" x2="100.86" y2="473.86"/>
		<polyline fill="none" points="100.04,473.56 100.63,474.5 100.64,474.52 99.08,478.72   "/>
		<line fill="none" x1="99.08" y1="478.72" x2="100.04" y2="473.56"/>
		<line fill="none" x1="94.76" y1="477.76" x2="94.04" y2="477.64"/>
		<line fill="none" x1="94.16" y1="476.8" x2="94.76" y2="477.76"/>
		<polyline fill="none" points="98.3,478.55 94.76,477.76 98.48,477.76 99.08,478.72   "/>
		
			<polyline fill="none" stroke="#000000" stroke-width="0.84" stroke-linecap="round" stroke-linejoin="round" stroke-miterlimit="10" points="    94.04,477.64 98.3,478.55 99.08,478.72 100.63,474.5 100.86,473.86 100.88,473.8 100.04,473.56 98.51,477.68 98.48,477.76     94.16,476.8 94.04,477.64   "/>
		
			<polyline fill="none" stroke="#000000" stroke-width="0.84" stroke-linecap="round" stroke-linejoin="round" stroke-miterlimit="10" points="    99.08,478.72 98.51,477.68 96.09,473.3 95.84,472.84 86.12,455.08 46.04,455.08   "/>
		
			<path fill="none" stroke="#000000" stroke-width="0.84" stroke-linecap="round" stroke-linejoin="round" stroke-miterlimit="10" d="    M37.1,445.84c-4.94,0-8.94,4-8.94,8.94c0,4.938,4,8.938,8.94,8.938s8.94-4,8.94-8.938C46.04,449.84,42.04,445.84,37.1,445.84z"/>
		<line fill="none" x1="193.04" y1="129.88" x2="193.26" y2="129.22"/>
		<polyline fill="none" points="192.439,128.92 193.03,129.86 193.04,129.88 191.48,134.08   "/>
		<line fill="none" x1="191.48" y1="134.08" x2="192.439" y2="128.92"/>
		<line fill="none" x1="187.16" y1="133.12" x2="186.439" y2="133"/>
		<line fill="none" x1="186.68" y1="132.16" x2="187.16" y2="133.12"/>
		<polygon fill="none" points="191,133.12 191.48,134.08 187.16,133.12 190.95,133.12   "/>
		
			<polyline fill="none" stroke="#000000" stroke-width="0.84" stroke-linecap="round" stroke-linejoin="round" stroke-miterlimit="10" points="    186.439,133 191.48,134.08 193.03,129.86 193.26,129.22 193.28,129.16 192.439,128.92 191,133.12 190.939,133.11 186.68,132.16     186.439,133   "/>
		
			<polyline fill="none" stroke="#000000" stroke-width="0.84" stroke-linecap="round" stroke-linejoin="round" stroke-miterlimit="10" points="    191.48,134.08 190.95,133.12 190.939,133.11 188.24,128.2 185.6,123.51 183.75,120.22 181.83,116.81 174.96,104.59 165.56,87.88     46.04,87.88   "/>
		
			<line fill="none" stroke="#000000" stroke-width="0.84" stroke-linecap="round" stroke-linejoin="round" stroke-miterlimit="10" x1="37.1" y1="92.439" x2="37.1" y2="82.36"/>
		
			<line fill="none" stroke="#000000" stroke-width="0.84" stroke-linecap="round" stroke-linejoin="round" stroke-miterlimit="10" x1="37.1" y1="373.898" x2="37.1" y2="363.819"/>
		
			<circle fill="none" stroke="#000000" stroke-width="0.84" stroke-linecap="round" stroke-linejoin="round" stroke-miterlimit="10" cx="37.1" cy="87.46" r="8.94"/>
		<line fill="none" x1="187.52" y1="178.48" x2="187.76" y2="177.76"/>
		<polyline fill="none" points="186.92,177.4 187.5,178.45 187.52,178.48 185.96,182.56   "/>
		<line fill="none" x1="185.96" y1="182.56" x2="186.92" y2="177.4"/>
		<line fill="none" x1="181.641" y1="181.72" x2="180.92" y2="181.6"/>
		<line fill="none" x1="181.16" y1="180.76" x2="181.641" y2="181.72"/>
		<polygon fill="none" points="185.48,181.6 185.96,182.56 181.641,181.72 185.43,181.6   "/>
		
			<polyline fill="none" stroke="#000000" stroke-width="0.84" stroke-linecap="round" stroke-linejoin="round" stroke-miterlimit="10" points="    180.92,181.6 185.96,182.56 187.5,178.45 187.76,177.76 186.92,177.4 185.48,181.6 185.43,181.59 181.16,180.76 180.92,181.6       "/>
		
			<polyline fill="none" stroke="#000000" stroke-width="0.84" stroke-linecap="round" stroke-linejoin="round" stroke-miterlimit="10" points="    185.96,182.56 185.43,181.6 185.43,181.59 182.72,176.68 181.54,174.6 179.63,171.25 179,170.15 177.11,166.83 176.45,165.68     174.54,162.31 161.72,139.81 160.65,137.94 158.78,134.64 156.83,131.23 149.9,119.06 145.88,112 46.04,112   "/>
		
			<polyline fill="none" stroke="#000000" stroke-width="0.84" stroke-linecap="round" stroke-linejoin="round" stroke-miterlimit="10" points="    33.439,107.56 34.699,106.84 37.219,106.12 39.019,106.12 40.639,107.201 40.999,108.821 40.639,109.9 40.099,110.98     38.659,112.42 36.499,113.68 32.719,115.84 40.999,115.48   "/>
		
			<circle fill="none" stroke="#000000" stroke-width="0.84" stroke-linecap="round" stroke-linejoin="round" stroke-miterlimit="10" cx="37.1" cy="111.58" r="8.94"/>
		<line fill="none" x1="200.12" y1="311.561" x2="200.6" y2="312.51"/>
		<line fill="none" x1="199.16" y1="316.72" x2="200.12" y2="311.561"/>
		<line fill="none" x1="194.72" y1="315.76" x2="194.12" y2="315.64"/>
		<line fill="none" x1="194.24" y1="314.8" x2="194.72" y2="315.76"/>
		<polyline fill="none" points="198.391,316.55 194.72,315.76 198.561,315.76 199.16,316.72   "/>
		
			<polyline fill="none" stroke="#000000" stroke-width="0.84" stroke-linecap="round" stroke-linejoin="round" stroke-miterlimit="10" points="    194.12,315.64 198.391,316.55 199.16,316.72 200.6,312.51 200.84,311.8 200.12,311.561 198.58,315.71 198.561,315.76     194.24,314.8 194.12,315.64   "/>
		
			<polyline fill="none" stroke="#000000" stroke-width="0.84" stroke-linecap="round" stroke-linejoin="round" stroke-miterlimit="10" points="    199.16,316.72 198.58,315.71 195.8,310.84 195.22,309.8 179.36,281.32 165.56,281.32 161.72,281.32 158,281.32 143.84,281.32     120.8,281.32 117.08,281.32 102.92,281.32 46.04,281.32   "/>
		
			<polyline fill="none" stroke="#000000" stroke-width="0.84" stroke-linecap="round" stroke-linejoin="round" stroke-miterlimit="10" points="    38.6,285.881 38.6,282.189 38.6,276.445 38.6,275.801   "/>
		
			<polyline fill="none" stroke="#000000" stroke-width="0.84" stroke-linecap="round" stroke-linejoin="round" stroke-miterlimit="10" points="    39.32,275.801 38.6,276.445 31.94,282.46 38.6,282.189 40.94,282.1   "/>
		
			<path fill="none" stroke="#000000" stroke-width="0.84" stroke-linecap="round" stroke-linejoin="round" stroke-miterlimit="10" d="    M37.1,272.08c-4.94,0-8.94,4-8.94,8.939c0,4.938,4,8.938,8.94,8.938s8.94-4,8.94-8.938C46.04,276.08,42.04,272.08,37.1,272.08z"/>
		<line fill="none" x1="193.52" y1="387.76" x2="193.75" y2="387.06"/>
		<polyline fill="none" points="193.04,386.8 193.51,387.73 193.52,387.76 191.96,391.96   "/>
		<line fill="none" x1="191.96" y1="391.96" x2="193.04" y2="386.8"/>
		<line fill="none" x1="187.641" y1="391" x2="186.92" y2="390.88"/>
		<line fill="none" x1="187.16" y1="390.04" x2="187.641" y2="391"/>
		<polygon fill="none" points="191.48,390.88 191.96,391.96 187.641,391 191.38,390.88   "/>
		
			<polyline fill="none" stroke="#000000" stroke-width="0.84" stroke-linecap="round" stroke-linejoin="round" stroke-miterlimit="10" points="    186.92,390.88 191.96,391.96 193.51,387.73 193.75,387.06 193.76,387.04 193.04,386.8 191.48,390.88 191.359,390.86     187.16,390.04 186.92,390.88   "/>
		
			<polyline fill="none" stroke="#000000" stroke-width="0.84" stroke-linecap="round" stroke-linejoin="round" stroke-miterlimit="10" points="    191.96,391.96 191.38,390.88 191.359,390.86 188.72,385.96 184.76,378.9 179.36,369.28 169.4,369.28 165.56,369.28 161.72,369.28     158,369.28 143.84,369.28 120.8,369.28 117.08,369.28 102.92,369.28 46.04,369.28   "/>
		
			<polyline fill="none" stroke="#000000" stroke-width="0.84" stroke-linecap="round" stroke-linejoin="round" stroke-miterlimit="10" points="    32.96,458.006 32.96,456.609 33.68,453.91 34.4,452.83 36.02,451.029 37.101,450.309 38.18,449.949   "/>
		
			<polygon fill="none" stroke="#000000" stroke-width="0.84" stroke-linecap="round" stroke-linejoin="round" stroke-miterlimit="10" points="    32.96,458.006 35.48,455.17 37.82,453.91 39.62,453.91 41.06,454.631 41.24,455.17 41.24,456.249 39.98,458.41 37.101,460.21     35.12,460.21 33.68,459.49 32.96,458.049   "/>
		
			<line fill="none" stroke="#000000" stroke-width="0.84" stroke-linecap="round" stroke-linejoin="round" stroke-miterlimit="10" x1="33.68" y1="457.181" x2="33.92" y2="456.911"/>
		
			<path fill="none" stroke="#000000" stroke-width="0.84" stroke-linecap="round" stroke-linejoin="round" stroke-miterlimit="10" d="    M37.1,359.92c-4.94,0-8.94,4-8.94,8.94c0,4.938,4,8.938,8.94,8.938s8.94-4,8.94-8.938C46.04,363.92,42.04,359.92,37.1,359.92z"/>
	</g>
</g>
</svg>